<svg width="210" height="41" viewBox="0 0 210 41" fill="none" xmlns="http://www.w3.org/2000/svg">
<path d="M22.3633 41C21.4779 41 20.5859 40.7917 19.6875 40.375C18.7891 39.9714 17.819 39.3919 16.7773 38.6367C15.8268 37.9727 14.8828 37.2435 13.9453 36.4492C11.7448 34.6263 9.73307 33.3372 7.91016 32.582C6.85547 32.1393 5.72266 31.918 4.51172 31.918H4.0625C3.98438 31.918 3.82812 31.931 3.59375 31.957L9.55078 4.24219C7.75391 4.98438 6.3737 6.09115 5.41016 7.5625C4.44661 9.02083 3.96484 10.8177 3.96484 12.9531C3.96484 13.7734 4.05599 14.444 4.23828 14.9648C4.29036 15.1341 4.35547 15.2839 4.43359 15.4141C4.48568 15.5052 4.51172 15.5964 4.51172 15.6875C3.06641 15.6875 2.01172 15.3945 1.34766 14.8086C0.605469 14.1836 0.234375 13.181 0.234375 11.8008C0.234375 10.9284 0.423177 10.069 0.800781 9.22266C1.17839 8.36328 1.71224 7.53646 2.40234 6.74219C3.06641 5.97396 3.84766 5.26432 4.74609 4.61328C5.65755 3.94922 6.63411 3.3763 7.67578 2.89453C9.88932 1.89193 12.0898 1.39062 14.2773 1.39062C14.7591 1.39062 15.293 1.42318 15.8789 1.48828L9.72656 30.1992C10.3646 30.3424 11.0091 30.5573 11.6602 30.8438C12.3242 31.1302 13.0794 31.5013 13.9258 31.957L16.1133 33.1289C17.806 34.0534 19.3359 34.6914 20.7031 35.043C21.4844 35.2513 22.3047 35.3555 23.1641 35.3555C24.375 35.3555 25.4948 35.1406 26.5234 34.7109C26.2891 36.6641 25.8138 38.194 25.0977 39.3008C24.7461 39.8477 24.3359 40.2643 23.8672 40.5508C23.4115 40.8503 22.9102 41 22.3633 41ZM28.107 3.83203C26.3102 4.57422 24.9299 5.68099 23.9664 7.15234C23.0029 8.6237 22.5211 10.4271 22.5211 12.5625C22.5211 13.3958 22.6122 14.0599 22.7945 14.5547C22.8466 14.724 22.9117 14.8737 22.9898 15.0039C23.0419 15.0951 23.068 15.1862 23.068 15.2773C21.6227 15.2773 20.568 14.9909 19.9039 14.418C19.1617 13.793 18.7906 12.7839 18.7906 11.3906C18.7906 10.5182 18.9794 9.65885 19.357 8.8125C19.7346 7.95312 20.2685 7.1263 20.9586 6.33203C21.6096 5.57682 22.3844 4.8737 23.2828 4.22266C24.1943 3.55859 25.1773 2.98568 26.232 2.50391C28.4456 1.5013 30.6461 1 32.8336 1C33.4326 1 33.9664 1.02604 34.4352 1.07812L28.068 31H22.3258L28.107 3.83203ZM46.1945 39.2812C45.231 39.2812 44.3521 39.151 43.5578 38.8906C42.7635 38.6302 42.0799 38.2591 41.507 37.7773C40.9341 37.2956 40.4914 36.7161 40.1789 36.0391C39.8664 35.362 39.7102 34.6263 39.7102 33.832C39.7102 33.0638 39.8469 32.3411 40.1203 31.6641C40.3937 31 40.7779 30.4076 41.2727 29.8867C41.7544 29.3789 42.3273 28.9883 42.9914 28.7148C43.6555 28.4284 44.3586 28.2852 45.1008 28.2852C46.1294 28.2852 46.9497 28.5326 47.5617 29.0273C48.1867 29.5221 48.4992 30.1927 48.4992 31.0391C48.4992 31.6771 48.356 32.1849 48.0695 32.5625C47.8221 32.237 47.4901 31.9831 47.0734 31.8008C46.6698 31.6185 46.2401 31.5273 45.7844 31.5273C44.9641 31.5273 44.313 31.7878 43.8312 32.3086C43.3234 32.8424 43.0695 33.5391 43.0695 34.3984C43.0695 35.2448 43.3169 35.9349 43.8117 36.4688C44.2935 37.0156 44.912 37.2891 45.6672 37.2891C46.5917 37.2891 47.3859 36.8724 48.05 36.0391C48.7141 35.2188 49.2284 33.9948 49.593 32.3672L51.5852 23.5195H51.4289C50.6867 24.5352 49.8013 25.3099 48.7727 25.8438C47.757 26.3776 46.6437 26.6445 45.4328 26.6445C44.2609 26.6445 43.1997 26.4102 42.2492 25.9414C41.2987 25.4596 40.4849 24.776 39.8078 23.8906C39.1307 23.0052 38.6099 21.9375 38.2453 20.6875C37.8807 19.4375 37.6984 18.0508 37.6984 16.5273C37.6984 15.056 37.8612 13.6432 38.1867 12.2891C38.5253 10.9219 39.0135 9.64583 39.6516 8.46094C40.9276 6.0651 42.6659 4.1901 44.8664 2.83594C47.132 1.42969 49.6125 0.726562 52.3078 0.726562C53.4276 0.726562 54.4432 0.856771 55.3547 1.11719C56.2792 1.36458 57.0604 1.72266 57.6984 2.19141C58.3365 2.67318 58.8247 3.25911 59.1633 3.94922C59.5018 4.6263 59.6711 5.38802 59.6711 6.23438C59.6711 7.36719 59.3911 8.28516 58.8312 8.98828C58.5578 9.32682 58.2258 9.58724 57.8352 9.76953C57.4576 9.95182 57.0539 10.043 56.6242 10.043C56.1294 10.043 55.6607 9.9388 55.218 9.73047C54.7753 9.50911 54.4042 9.19661 54.1047 8.79297C54.5734 8.48047 54.9771 7.96615 55.3156 7.25C55.6542 6.53385 55.8234 5.82422 55.8234 5.12109C55.8234 4.3138 55.5891 3.69531 55.1203 3.26562C54.6646 2.82292 54.007 2.60156 53.1477 2.60156C52.3664 2.60156 51.5917 2.78385 50.8234 3.14844C50.0682 3.51302 49.3391 4.02734 48.6359 4.69141C47.9458 5.34245 47.3078 6.1237 46.7219 7.03516C46.1359 7.93359 45.6346 8.91016 45.218 9.96484C44.3195 12.1914 43.8703 14.5352 43.8703 16.9961C43.8703 19.0143 44.1828 20.5508 44.8078 21.6055C45.4458 22.6471 46.3703 23.168 47.5812 23.168C49.0396 23.168 50.3091 22.4193 51.3898 20.9219C52.4836 19.4115 53.3755 17.1849 54.0656 14.2422L58.7922 14.2812L55.8625 27.7188C55.0031 31.6771 53.7987 34.6003 52.2492 36.4883C50.6997 38.3503 48.6815 39.2812 46.1945 39.2812ZM73.2859 3.79297C71.4891 4.54818 70.1023 5.66797 69.1258 7.15234C68.1622 8.63672 67.6805 10.4401 67.6805 12.5625C67.6805 13.4219 67.7781 14.0859 67.9734 14.5547C68.0255 14.724 68.0906 14.8737 68.1688 15.0039C68.2208 15.0951 68.2469 15.1862 68.2469 15.2773C66.8146 15.2773 65.7534 14.9909 65.0633 14.418C64.3341 13.806 63.9695 12.7969 63.9695 11.3906C63.9695 10.5312 64.1518 9.67188 64.5164 8.8125C64.894 7.95312 65.4279 7.1263 66.118 6.33203C66.782 5.5638 67.5633 4.85417 68.4617 4.20312C69.3602 3.55208 70.3367 2.98568 71.3914 2.50391C73.631 1.5013 75.8315 1 77.993 1C78.5919 1 79.1258 1.02604 79.5945 1.07812L77.0359 12.9922H82.9148L85.4734 1.07812H91.2352L84.8875 31H79.1258L82.3289 15.9609H76.45L73.2469 31H67.4852L73.2859 3.79297ZM105.436 4.51562H104.967C102.597 4.51562 100.814 5.05599 99.6156 6.13672C98.1703 7.4388 97.4477 9.59375 97.4477 12.6016C97.4477 13.4349 97.5388 14.099 97.7211 14.5938C97.7732 14.763 97.8383 14.9128 97.9164 15.043C97.9685 15.1341 97.9945 15.2253 97.9945 15.3164C96.5492 15.3164 95.4945 15.0299 94.8305 14.457C94.0883 13.832 93.7172 12.8294 93.7172 11.4492C93.7172 10.069 93.9711 8.76042 94.4789 7.52344C94.9997 6.27344 95.7875 5.17969 96.8422 4.24219C97.975 3.22656 99.4138 2.4388 101.159 1.87891C102.916 1.31901 104.987 1.03906 107.37 1.03906C108.737 1.03906 110.045 1.11719 111.295 1.27344C111.686 1.3125 112.194 1.38411 112.819 1.48828C113.86 1.68359 114.863 1.8138 115.827 1.87891C116.295 1.93099 116.888 1.95703 117.604 1.95703C118.489 1.95703 119.336 1.87891 120.143 1.72266C120.95 1.56641 121.653 1.36458 122.252 1.11719C122.187 2.86198 121.738 4.14453 120.905 4.96484C120.084 5.78516 118.867 6.19531 117.252 6.19531C116.38 6.19531 115.501 6.1237 114.616 5.98047C113.73 5.83724 112.539 5.61589 111.041 5.31641L105.514 31H99.7719L105.436 4.51562ZM137.998 31.7227C136.722 31.7227 135.569 31.5534 134.541 31.2148C133.512 30.8893 132.627 30.4141 131.884 29.7891C131.129 29.1641 130.55 28.4219 130.146 27.5625C129.755 26.7031 129.56 25.7526 129.56 24.7109C129.56 23.8385 129.697 23.0182 129.97 22.25C130.257 21.4688 130.654 20.7917 131.162 20.2188C131.67 19.6458 132.262 19.2031 132.939 18.8906C133.616 18.5651 134.332 18.4023 135.087 18.4023C136.025 18.4023 136.813 18.6367 137.451 19.1055C138.089 19.5742 138.486 20.2188 138.642 21.0391C137.249 21.0391 136.142 21.4102 135.322 22.1523C134.931 22.5039 134.625 22.9336 134.404 23.4414C134.196 23.9492 134.091 24.5091 134.091 25.1211C134.091 26.293 134.43 27.224 135.107 27.9141C135.797 28.5911 136.722 28.9297 137.88 28.9297C138.571 28.9297 139.215 28.806 139.814 28.5586C140.413 28.2982 140.934 27.9466 141.377 27.5039C141.819 27.0612 142.158 26.5339 142.392 25.9219C142.64 25.2969 142.763 24.6328 142.763 23.9297C142.763 22.6276 142.321 21.2734 141.435 19.8672C141.084 19.3203 140.693 18.7865 140.263 18.2656C139.847 17.7318 139.261 17.0286 138.505 16.1562C137.828 15.375 137.262 14.6979 136.806 14.125C136.351 13.5521 135.94 12.9661 135.576 12.3672C134.69 10.9219 134.248 9.5026 134.248 8.10938C134.248 7.06771 134.469 6.10417 134.912 5.21875C135.354 4.32031 135.986 3.53906 136.806 2.875C137.627 2.21094 138.584 1.69661 139.677 1.33203C140.771 0.967448 141.949 0.785156 143.212 0.785156C145.361 0.785156 147.086 1.29297 148.388 2.30859C149.013 2.80339 149.489 3.39583 149.814 4.08594C150.153 4.77604 150.322 5.54427 150.322 6.39062C150.322 7.4974 150.042 8.40234 149.482 9.10547C149.222 9.44401 148.896 9.70443 148.505 9.88672C148.128 10.069 147.724 10.1602 147.295 10.1602C146.292 10.1602 145.478 9.74349 144.853 8.91016C145.361 8.54557 145.758 8.0638 146.045 7.46484C146.344 6.85286 146.494 6.20182 146.494 5.51172C146.494 4.65234 146.24 3.97526 145.732 3.48047C145.224 2.97266 144.528 2.71875 143.642 2.71875C143.108 2.71875 142.614 2.81641 142.158 3.01172C141.715 3.20703 141.337 3.48698 141.025 3.85156C140.699 4.21615 140.446 4.64583 140.263 5.14062C140.094 5.63542 140.009 6.17578 140.009 6.76172C140.009 7.59505 140.205 8.39583 140.595 9.16406C140.986 9.93229 141.546 10.7331 142.275 11.5664C142.926 12.3346 143.629 13.0964 144.384 13.8516C146.142 15.6745 147.386 17.4518 148.115 19.1836C148.545 20.2122 148.759 21.3451 148.759 22.582C148.759 23.8841 148.492 25.0951 147.959 26.2148C147.425 27.3216 146.663 28.2852 145.673 29.1055C144.684 29.9388 143.532 30.5833 142.216 31.0391C140.901 31.4948 139.495 31.7227 137.998 31.7227ZM171.866 31.6836C170.708 31.6836 169.868 31.3906 169.347 30.8047C168.943 30.362 168.741 29.763 168.741 29.0078C168.741 28.4089 168.833 27.7188 169.015 26.9375C169.197 26.1432 169.464 25.1211 169.816 23.8711C170.167 22.6081 170.428 21.5664 170.597 20.7461C170.779 19.9258 170.87 19.1706 170.87 18.4805C170.87 17.6341 170.695 16.9766 170.343 16.5078C169.952 16.013 169.327 15.7656 168.468 15.7656C167.96 15.7656 167.517 15.8177 167.14 15.9219L163.937 31H158.195L163.976 3.79297C162.179 4.54818 160.799 5.66797 159.835 7.15234C158.872 8.63672 158.39 10.4401 158.39 12.5625C158.39 13.3958 158.481 14.0599 158.663 14.5547C158.715 14.724 158.78 14.8737 158.859 15.0039C158.911 15.0951 158.937 15.1862 158.937 15.2773C157.491 15.2773 156.437 14.9909 155.773 14.418C155.03 13.793 154.659 12.7839 154.659 11.3906C154.659 10.5182 154.848 9.65885 155.226 8.8125C155.603 7.95312 156.137 7.1263 156.827 6.33203C157.478 5.57682 158.253 4.8737 159.152 4.22266C160.063 3.55859 161.046 2.98568 162.101 2.50391C164.314 1.5013 166.515 1 168.702 1C169.301 1 169.835 1.02604 170.304 1.07812L167.706 13.3242L168.839 11.8203C169.555 10.8307 170.512 9.54818 171.71 7.97266L173.195 5.96094L174.581 4.10547L175.714 2.58203L176.495 1.56641L176.788 1.19531H180.988L169.874 14.0078C170.213 14.0078 170.454 14.0013 170.597 13.9883C170.74 13.9753 170.961 13.9688 171.261 13.9688C173.084 13.9688 174.399 14.3724 175.206 15.1797C175.883 15.8698 176.222 16.8919 176.222 18.2461C176.222 18.9883 176.137 19.7826 175.968 20.6289C175.799 21.4622 175.558 22.4518 175.245 23.5977C174.894 24.8737 174.64 25.8503 174.484 26.5273C174.34 27.1914 174.269 27.8034 174.269 28.3633C174.269 28.9883 174.405 29.5417 174.679 30.0234C174.965 30.4922 175.349 30.8177 175.831 31C174.23 31.4557 172.908 31.6836 171.866 31.6836ZM195.657 18.6758L191.809 3.67578C189.908 4.39193 188.437 5.50521 187.395 7.01562C186.367 8.51302 185.852 10.362 185.852 12.5625C185.852 13.3958 185.943 14.0599 186.126 14.5547C186.178 14.724 186.243 14.8737 186.321 15.0039C186.373 15.0951 186.399 15.1862 186.399 15.2773C184.954 15.2773 183.899 14.9909 183.235 14.418C182.493 13.793 182.122 12.7839 182.122 11.3906C182.122 10.5182 182.311 9.65885 182.688 8.8125C183.066 7.95312 183.6 7.1263 184.29 6.33203C184.941 5.57682 185.716 4.8737 186.614 4.22266C187.526 3.55859 188.509 2.98568 189.563 2.50391C191.777 1.5013 193.977 1 196.165 1C196.764 1 197.298 1.02604 197.766 1.07812L201.243 15.3945L207.161 1.19531H209.817L202.044 18.6758L199.407 31H193.001L195.657 18.6758Z" fill="black"/>
</svg>
