<svg width="200" height="200" viewBox="0 0 200 200" fill="none" xmlns="http://www.w3.org/2000/svg">
<g clip-path="url(#clip0_22_56)">
<path d="M150.616 163.891C145.318 169.208 137.721 171.905 128.036 171.905C123.518 171.905 118.883 171.917 114.212 171.93C109.465 171.944 104.682 171.956 99.9395 171.956C91.063 171.956 79.5665 171.917 69.3603 171.604C44.3384 170.834 44.2803 150.291 44.2907 149.389V86.0915H72.4698V94.551L57.9301 114.549C57.6729 114.903 57.5339 115.331 57.5339 115.768V152.189C57.5339 153.336 58.4632 154.264 59.6083 154.264H89.4906C90.6357 154.264 91.565 153.336 91.565 152.189V115.768C91.565 115.331 91.426 114.903 91.1667 114.549L76.6187 94.5489V86.0915H157.499C157.488 95.4119 157.449 133.496 157.501 147.528C157.522 153.426 154.947 159.543 150.616 163.891ZM68.0616 187.612C68.7441 181.368 72.3993 176.107 76.376 176.107H125.418C129.392 176.107 133.05 181.368 133.73 187.612H68.0616ZM74.5463 98.7518L87.4161 116.443V150.115H61.6828V116.443L74.5463 98.7518ZM161.65 84.0191C161.65 83.4673 161.432 82.9425 161.042 82.5504C160.654 82.1625 160.125 81.9426 159.575 81.9426H42.2163C41.0712 81.9426 40.1418 82.8699 40.1418 84.017V149.353C40.1377 149.607 40.0713 174.556 68.7504 175.724C65.7653 178.999 63.7987 184.082 63.7987 189.687C63.7987 190.832 64.728 191.761 65.8731 191.761H135.918C135.931 191.759 135.943 191.761 135.96 191.761C137.105 191.761 138.034 190.832 138.034 189.687C138.034 189.537 138.018 189.392 137.989 189.253C137.891 183.847 135.97 178.962 133.089 175.769C141.497 174.906 148.519 171.876 153.555 166.82C158.65 161.707 161.675 154.49 161.65 147.511C161.592 131.561 161.648 84.4942 161.65 84.0191" fill="black" fill-opacity="0.43"/>
<path d="M78.0886 61.1642C77.7173 62.6702 75.7549 65.0952 68.5027 68.0948C67.4447 68.5326 66.9406 69.7461 67.3804 70.8041C67.7102 71.6027 68.484 72.0861 69.2972 72.0861C69.5627 72.0861 69.8303 72.0342 70.0896 71.9263C77.3979 68.9018 81.219 65.7984 82.1172 62.1578C83.1752 57.872 80.1154 54.2024 76.8772 50.3149C71.3633 43.6995 66.6025 37.9865 77.2112 28.6038C78.0679 27.8446 78.1488 26.5335 77.3896 25.6768C76.6303 24.818 75.3213 24.7371 74.4605 25.4963C60.8376 37.5488 68.5711 46.8298 73.6888 52.9701C76.2362 56.0279 78.6446 58.9175 78.0886 61.1642Z" fill="black" fill-opacity="0.43"/>
<path d="M132.558 61.1662C132.187 62.6723 130.224 65.0952 122.974 68.0948C121.916 68.5326 121.412 69.7461 121.85 70.8041C122.182 71.6027 122.953 72.0861 123.769 72.0861C124.032 72.0861 124.302 72.0342 124.561 71.9263C131.867 68.9018 135.688 65.7984 136.586 62.1599C137.642 57.8741 134.585 54.2024 131.344 50.3169C125.831 43.6995 121.07 37.9865 131.678 28.6038C132.537 27.8446 132.616 26.5335 131.859 25.6768C131.1 24.818 129.791 24.7371 128.93 25.4963C115.305 37.5488 123.038 46.8298 128.156 52.9722C130.705 56.0279 133.112 58.9175 132.558 61.1662Z" fill="black" fill-opacity="0.43"/>
<path d="M94.6426 68.0114C93.539 68.3163 92.8918 69.4593 93.1968 70.5629C93.4519 71.484 94.2858 72.0856 95.1965 72.0856C95.3791 72.0856 95.5658 72.0607 95.7504 72.0109C104.027 69.7166 108.948 66.4369 110.794 61.9831C113.435 55.6042 109.382 48.4412 105.092 40.8591C99.0508 30.1882 93.3461 20.1064 103.559 11.0744C104.415 10.3151 104.496 9.00407 103.737 8.14733C102.978 7.28851 101.669 7.20553 100.81 7.96685C88.0812 19.2248 95.5098 32.356 101.48 42.9024C105.26 49.58 108.828 55.8842 106.959 60.3941C105.654 63.5472 101.511 66.1091 94.6426 68.0114Z" fill="black" fill-opacity="0.43"/>
</g>
<defs>
<clipPath id="clip0_22_56">
<rect width="200" height="200" fill="white"/>
</clipPath>
</defs>
</svg>
